<svg width="378" height="48" viewBox="0 0 378 48" fill="none" xmlns="http://www.w3.org/2000/svg">
<path d="M124.702 40.1505L119.175 34.6233L120.622 33.1763C124.389 29.409 124.389 23.2951 120.622 19.5278L111.744 10.6503C109.919 8.8253 107.495 7.82154 104.927 7.82154C102.359 7.82154 99.9339 8.8253 98.1089 10.6503L82.9091 25.8241L77.3818 20.2969L92.5556 5.11007C95.8537 1.81199 100.247 0 104.901 0C109.554 0 113.948 1.81199 117.259 5.11007L126.136 13.9875C132.941 20.7922 132.941 31.8858 126.136 38.6905L124.702 40.1505Z" fill="url(#paint0_linear_868_25514)"/>
<path d="M66.9001 30.7648L63.4716 34.1933C61.9204 32.5377 59.6651 31.547 57.1883 31.6643C53.069 31.8729 49.7318 35.2231 49.5363 39.3425C49.3277 43.9702 53.0168 47.7897 57.5924 47.7897C59.8216 47.7897 61.8421 46.8902 63.3022 45.4302L77.9675 30.7648C74.9041 27.7145 69.9505 27.7145 66.9001 30.7648Z" fill="url(#paint1_linear_868_25514)"/>
<path d="M119.161 34.6103L117.414 36.3571C114.95 38.8209 111.678 40.1766 108.185 40.1766C104.704 40.1766 101.419 38.8209 98.9554 36.3571L67.7214 5.11007C64.4234 1.81199 60.0433 0 55.3765 0C50.7096 0 46.3165 1.81199 43.0184 5.11007L13.9354 34.2062C12.4623 32.6419 10.3766 31.6642 8.06922 31.6642C3.61094 31.6642 0 35.2751 0 39.7334C0 44.1917 3.61094 47.8026 8.06922 47.8026C10.2984 47.8026 12.3189 46.9031 13.7789 45.4431L48.5587 10.6503C50.3837 8.8253 52.8084 7.82153 55.3765 7.82153C57.9445 7.82153 60.3692 8.8253 62.1942 10.6503L93.4282 41.8843C97.5085 45.9515 102.853 47.9851 108.198 47.9851C113.543 47.9851 118.887 45.9515 122.955 41.8843L124.701 40.1375L119.161 34.6103Z" fill="url(#paint2_linear_868_25514)"/>
<path fill-rule="evenodd" clip-rule="evenodd" d="M207.359 12.6956C207.359 14.6381 208.085 16.0543 209.527 16.9316C210.968 17.9969 214.038 19.0998 218.751 20.2277C223.701 21.4183 227.311 23.0475 229.566 25.1154C231.885 27.1833 233.05 30.1661 233.05 34.0512C233.05 38.1243 231.509 41.4204 228.438 43.9269C225.431 46.4335 221.483 47.6867 216.583 47.6867C209.489 47.6867 203.097 45.1802 197.395 40.1546C199.952 37.1092 204.288 36.282 207.81 38.1243C210.78 39.6658 213.763 40.4429 216.771 40.4429C219.214 40.4429 221.195 39.9039 222.699 38.8387C224.202 37.7107 224.954 36.2695 224.954 34.5149C224.954 32.7603 224.265 31.3817 222.887 30.3791C221.571 29.3765 219.189 28.4616 215.73 27.647C209.777 26.2684 205.629 24.6392 203.311 22.7593C200.616 20.6914 199.262 17.5206 199.262 13.2595C199.262 9.12377 200.766 5.89034 203.774 3.5718C206.795 1.1906 210.642 0 215.354 0C221.683 0 227.11 1.85483 231.634 5.55196C229.541 8.49714 225.756 9.6752 222.335 8.49714C222.282 8.48111 222.228 8.46281 222.174 8.44417L222.174 8.44408C222.1 8.41902 222.026 8.39336 221.947 8.37181C219.628 7.55719 217.335 7.14361 215.079 7.14361C212.76 7.14361 210.88 7.64492 209.439 8.64753C208.048 9.60001 207.359 10.941 207.359 12.6956ZM137.391 47.9875H137.491C141.902 47.9875 145.487 44.4157 145.487 39.9916V10.7279L161.077 41.7963C161.704 43.0245 162.957 43.8016 164.336 43.8016C165.702 43.8016 166.968 43.0245 167.582 41.7963L183.248 10.7279V47.9875C187.659 47.9875 191.243 44.4031 191.243 39.9916V7.95819C191.243 3.72215 187.809 0.288208 183.573 0.288208C180.628 0.288208 177.934 1.98012 176.655 4.63704L164.323 30.2412L152.066 4.64957C150.788 1.98012 148.106 0.288208 145.148 0.288208H145.061C140.825 0.288208 137.391 3.72215 137.391 7.95819V47.9875ZM255.584 0.288208C262.74 0.288208 267.978 1.69187 271.287 4.48665C274.671 7.21876 276.363 11.4799 276.363 17.2699C276.363 22.9974 274.671 27.2209 271.287 29.953C267.903 32.6224 262.702 33.9509 255.684 33.9509H247.3V39.9039C247.3 44.3781 243.678 48 239.204 48V8.39683C239.204 3.92268 242.825 0.300741 247.3 0.300741H255.584V0.288208ZM256.561 26.7321C260.86 26.7321 263.843 25.9175 265.535 24.2883C267.289 22.659 268.167 20.0898 268.167 16.5807C268.167 13.3347 267.164 11.0162 265.146 9.65013C263.128 8.28407 259.882 7.60731 255.396 7.60731H248.553C247.864 7.60731 247.3 8.17128 247.3 8.86057V26.7321H256.561ZM290.61 0.288208V39.8914C290.61 44.3655 286.989 47.9875 282.514 47.9875V8.3843C282.502 3.92268 286.136 0.288208 290.61 0.288208ZM324.561 30.6297L337.043 47.9875H330.99C328.371 47.9875 325.902 46.7091 324.385 44.5786L315.399 31.8955H304.859V39.8914C304.859 44.3655 301.237 47.9875 296.763 47.9875V8.3843C296.763 3.91014 300.385 0.288208 304.859 0.288208H314.522C321.741 0.288208 326.917 1.52894 330.037 3.99787C333.221 6.40414 334.812 10.3394 334.812 15.8036C334.8 23.6741 331.378 28.612 324.561 30.6297ZM314.798 24.6768C319.285 24.6768 322.368 24 324.06 22.634C325.751 21.2679 326.591 18.9619 326.591 15.7034C326.591 12.5828 325.751 10.4648 324.06 9.36188C322.368 8.19634 319.347 7.60731 314.986 7.60731H306.088C305.398 7.60731 304.835 8.17128 304.835 8.86057V24.6768H314.798ZM377.513 0.288208V0.67672C377.513 4.61197 374.33 7.79526 370.394 7.79526H352.543C351.854 7.79526 351.29 8.35923 351.29 9.04853V20.4783H374.112C374.112 24.4136 370.929 27.5968 366.994 27.5968H352.543C351.854 27.5968 351.29 28.1608 351.29 28.8501V40.3801H377.534V40.8689C377.534 44.8042 374.35 47.9875 370.415 47.9875H350.313C346.377 47.9875 343.194 44.8042 343.194 40.8689V7.40675C343.194 3.4715 346.377 0.288208 350.313 0.288208H377.513Z" fill="url(#paint3_linear_868_25514)"/>
<defs>
<linearGradient id="paint0_linear_868_25514" x1="79.2339" y1="15.5575" x2="131.005" y2="22.029" gradientUnits="userSpaceOnUse">
<stop stop-color="#8100D0"/>
<stop offset="1" stop-color="#B737E2"/>
</linearGradient>
<linearGradient id="paint1_linear_868_25514" x1="61.132" y1="38.136" x2="129.021" y2="38.136" gradientUnits="userSpaceOnUse">
<stop stop-color="#8100D0"/>
<stop offset="1" stop-color="#B737E2"/>
</linearGradient>
<linearGradient id="paint2_linear_868_25514" x1="0" y1="23.9953" x2="124.695" y2="23.9953" gradientUnits="userSpaceOnUse">
<stop stop-color="#8100D0"/>
<stop offset="1" stop-color="#B737E2"/>
</linearGradient>
<linearGradient id="paint3_linear_868_25514" x1="377.578" y1="23.9675" x2="126.496" y2="23.9946" gradientUnits="userSpaceOnUse">
<stop stop-color="#8100D0"/>
<stop offset="1" stop-color="#B737E2"/>
</linearGradient>
</defs>
</svg>
